<!DOCTYPE svg PUBLIC "-//W3C//DTD SVG 1.1//EN" "http://www.w3.org/Graphics/SVG/1.1/DTD/svg11.dtd">
<!-- Uploaded to: SVG Repo, www.svgrepo.com, Transformed by: SVG Repo Mixer Tools -->
<svg version="1.1" id="Layer_1" xmlns="http://www.w3.org/2000/svg" xmlns:xlink="http://www.w3.org/1999/xlink" viewBox="0 0 496 496" xml:space="preserve" width="800px" height="800px" fill="#000000">
<g id="SVGRepo_bgCarrier" stroke-width="0"/>
<g id="SVGRepo_tracerCarrier" stroke-linecap="round" stroke-linejoin="round"/>
<g id="SVGRepo_iconCarrier"> <path style="fill:#ffdd00;" d="M328,140.001H168c-8.824,0-16,6.984-16,15.808v200c0,8.824,7.176,16.192,16,16.192h104v-40.192 c0-26.472,21.528-48,48-48c4.424,0,8,3.584,8,8v80c8,0,16-7.176,16-16v-200C344,146.985,336.816,140.001,328,140.001z M184,235.809 h-16v-16h16V235.809z M184,203.809h-16v-16h16V203.809z M184,171.809h-16v-16h16V171.809z"/> <g> <path style="fill:#334C5B;" d="M360,155.809c0-17.64-14.352-31.808-32-31.808H168c-17.648,0-32,14.168-32,31.808v200 c0,14.864,8,27.288,24,30.864v105.328h16v-104h104c4.424,0,8-3.768,8-8.192v-48c0-14.88,8-27.424,24-30.992v191.184h16V387.809 c16,0,32-14.352,32-32V155.809z M344,355.809c0,8.824-8,16-16,16v-80c0-4.416-3.576-8-8-8c-26.472,0-48,21.528-48,48v40.192H168 c-8.824,0-16-7.368-16-16.192v-200c0-8.824,7.176-15.808,16-15.808h160c8.816,0,16,6.984,16,15.808V355.809z"/> <path style="fill:#334C5B;" d="M492.704,245.337l-45.664-33.144l29.552-48.064c1.344-2.184,1.56-4.88,0.576-7.256 c-0.984-2.368-3.04-4.128-5.536-4.72l-54.888-13.072l8.864-55.72c0.408-2.528-0.432-5.104-2.24-6.912 c-1.808-1.816-4.368-2.656-6.912-2.248l-55.728,8.864l-13.072-54.888c-0.592-2.496-2.352-4.552-4.72-5.536 c-2.376-0.984-5.08-0.768-7.248,0.576l-48.072,29.552L254.48,7.113c-3.016-4.152-9.936-4.152-12.952,0l-33.136,45.656 l-48.072-29.56c-2.184-1.352-4.888-1.56-7.248-0.576c-2.368,0.984-4.128,3.04-4.72,5.536l-13.064,54.888L79.56,74.185 c-2.552-0.392-5.112,0.44-6.912,2.248c-1.816,1.816-2.648,4.384-2.24,6.912l8.864,55.72l-54.896,13.072 c-2.496,0.592-4.552,2.344-5.536,4.72c-0.984,2.368-0.768,5.064,0.576,7.256l29.552,48.072L3.304,245.329 c-2.08,1.512-3.304,3.92-3.304,6.48c0,2.56,1.224,4.968,3.304,6.472l45.656,33.144l-29.552,48.072 c-1.344,2.184-1.56,4.88-0.576,7.256s3.04,4.128,5.536,4.72l54.888,13.064l-8.864,55.72c-0.408,2.528,0.432,5.104,2.24,6.912 c1.808,1.808,4.344,2.64,6.912,2.248l63.048-10.032l-2.512-15.808l-52.16,8.304l8.296-52.16c0.656-4.136-1.976-8.072-6.048-9.04 l-51.352-12.224l27.648-44.968c2.192-3.56,1.272-8.208-2.12-10.664l-42.736-31.016l42.744-31.024 c3.384-2.456,4.304-7.104,2.112-10.664l-27.648-44.968l51.36-12.224c4.072-0.968,6.704-4.904,6.048-9.04l-8.296-52.16l52.152,8.304 c4.048,0.632,8.072-1.976,9.04-6.048l12.224-51.352l44.968,27.656c3.552,2.2,8.2,1.256,10.664-2.12L248,25.433l31.016,42.736 c2.464,3.384,7.128,4.32,10.664,2.12l44.968-27.648l12.232,51.352c0.96,4.064,4.864,6.696,9.04,6.048l52.16-8.304l-8.296,52.152 c-0.656,4.136,1.976,8.072,6.048,9.04l51.352,12.224l-27.648,44.968c-2.192,3.56-1.272,8.208,2.112,10.664l42.744,31.024 l-42.744,31.024c-3.384,2.456-4.304,7.104-2.112,10.664l27.648,44.968l-51.36,12.224c-4.072,0.968-6.704,4.904-6.048,9.04 l8.296,52.16l-52.16-8.304l-2.512,15.808l63.048,10.032c0.424,0.064,0.84,0.096,1.256,0.096c2.104,0,4.144-0.832,5.656-2.344 c1.816-1.816,2.648-4.384,2.24-6.912l-8.864-55.72l54.896-13.072c2.496-0.592,4.552-2.344,5.536-4.72 c0.984-2.368,0.768-5.064-0.576-7.256l-29.552-48.072l45.664-33.144c2.072-1.504,3.296-3.904,3.296-6.472 S494.776,246.841,492.704,245.337z"/> <rect x="168" y="155.809" style="fill:#334C5B;" width="16" height="16"/> <rect x="168" y="187.809" style="fill:#334C5B;" width="16" height="16"/> <rect x="168" y="219.809" style="fill:#334C5B;" width="16" height="16"/> </g> </g>
</svg>