<?xml version="1.0" ?>
<!-- Uploaded to: SVG Repo, www.svgrepo.com, Generator: SVG Repo Mixer Tools -->
<svg width="800px" height="800px" viewBox="0 0 32 32" enable-background="new 0 0 32 32" version="1.1" xml:space="preserve" xmlns="http://www.w3.org/2000/svg" xmlns:xlink="http://www.w3.org/1999/xlink">
<g id="ball"/>
<g id="wistle"/>
<g id="pitch"/>
<g id="goal"/>
<g id="socks"/>
<g id="shoe"/>
<g id="jersey"/>
<g id="bottle"/>
<g id="shorts"/>
<g id="corner"/>
<g id="winner"/>
<g id="trophy"/>
<g id="substitution"/>
<g id="medal_award"/>
<g id="strategy"/>
<g id="card"/>
<g id="gloves"/>
<g id="stadium"/>
<g id="keeper"/>
<g id="time"/>
<g id="horns"/>
<g id="flag"/>
<g id="referee"/>
<g id="player"/>
<g id="injury"/>
<g id="supporter"/>
<g id="coach"/>
<g id="cone"/>
<g id="captain"/>
<g id="match"/>
<g id="score"/>
<g id="celender"/>
<g id="grass"/>
<g id="game"/>
<g id="subsitutions">
<path d="M14,23c-0.622,0-1.136-0.239-1.618-0.751C10.094,19.813,9.84,12.57,9.955,9H12   c0.388,0,0.741-0.225,0.905-0.576c0.165-0.352,0.111-0.767-0.137-1.064l-5-6c-0.381-0.456-1.156-0.456-1.537,0l-5,6   C0.983,7.658,0.93,8.073,1.095,8.424C1.259,8.775,1.612,9,2,9h1.971c-0.022,2.657,0.29,9.589,3.872,13.402   C9.463,24.126,11.534,25,14,25c0.553,0,1-0.448,1-1S14.553,23,14,23z M9.473,21.209c-0.058-0.057-0.114-0.115-0.17-0.174   C5.496,16.987,5.992,8.151,5.998,8.062c0.017-0.275-0.081-0.546-0.27-0.747C5.539,7.114,5.275,7,5,7H4.135L7,3.562L9.865,7H9   C8.472,7,8.035,7.411,8.002,7.938C7.977,8.34,7.507,16.348,9.473,21.209z" fill="#FF911C"/>
<path d="M18,5c0.622,0,1.136,0.239,1.618,0.752C21.906,8.186,22.16,15.43,22.045,19H20   c-0.388,0-0.741,0.225-0.905,0.576c-0.165,0.351-0.111,0.767,0.137,1.064l5,6C24.422,26.868,24.703,27,25,27   c0.297,0,0.578-0.132,0.769-0.36l5-6c0.248-0.298,0.302-0.713,0.137-1.064C30.741,19.225,30.388,19,30,19h-1.971   c0.021-2.657-0.29-9.589-3.872-13.402C22.537,3.874,20.466,3,18,3c-0.553,0-1,0.448-1,1S17.447,5,18,5z M22.527,6.791   c0.058,0.057,0.114,0.115,0.17,0.174c3.807,4.048,3.311,12.884,3.305,12.973c-0.017,0.275,0.081,0.546,0.269,0.747   C26.461,20.886,26.725,21,27,21h0.865L25,24.438L22.135,21H23c0.528,0,0.965-0.411,0.998-0.938   C24.023,19.66,24.493,11.652,22.527,6.791z" fill="#FFCC2F"/>
<path d="M31,30c0,0.552-0.447,1-1,1h-8c-0.553,0-1-0.448-1-1s0.447-1,1-1h8C30.553,29,31,29.448,31,30z M19,29h-2   c-0.553,0-1,0.448-1,1s0.447,1,1,1h2c0.553,0,1-0.448,1-1S19.553,29,19,29z M14,29H2c-0.553,0-1,0.448-1,1s0.447,1,1,1h12   c0.553,0,1-0.448,1-1S14.553,29,14,29z" fill="#FFCC2F"/>
</g>
<g id="bench"/>
</svg>